<?xml version="1.0" encoding="UTF-8"?><svg id="a" xmlns="http://www.w3.org/2000/svg" viewBox="0 0 176.97 174.93"><defs><style>.b{fill:#036be8;}</style></defs><path class="b" d="M75.94,67.65c-.62-.34-1.36-.38-2.04-.27-2.02,.41-3.68,1.76-5.11,3.17-2.94,3.03-4.99,6.91-5.86,11.04-.75,3.85-.41,7.9,.9,11.6,.57,1.52,1.28,3.03,2.43,4.2,.61,.62,1.53,1.11,2.4,.74,.82-.28,1.06-1.22,1.07-1.99,.02-1.67-.3-3.32-.45-4.98-.36-3.33-.29-6.78,.79-9.98,.81-2.42,2.19-4.6,3.75-6.6,.9-1.2,1.91-2.32,2.72-3.58,.35-.56,.69-1.19,.63-1.88-.07-.69-.66-1.16-1.23-1.47Zm9.05-6.24c-.75-.48-1.7-.53-2.56-.34-1.27,.29-2.43,1.12-3.05,2.29-.41,.79-.53,1.79-.08,2.59,.45,.84,1.43,1.27,2.35,1.29,1.12,.01,2.23-.42,3.07-1.17,.82-.69,1.41-1.72,1.36-2.81-.02-.75-.45-1.46-1.09-1.85Zm0,0c-.75-.48-1.7-.53-2.56-.34-1.27,.29-2.43,1.12-3.05,2.29-.41,.79-.53,1.79-.08,2.59,.45,.84,1.43,1.27,2.35,1.29,1.12,.01,2.23-.42,3.07-1.17,.82-.69,1.41-1.72,1.36-2.81-.02-.75-.45-1.46-1.09-1.85Zm-9.05,6.24c-.62-.34-1.36-.38-2.04-.27-2.02,.41-3.68,1.76-5.11,3.17-2.94,3.03-4.99,6.91-5.86,11.04-.75,3.85-.41,7.9,.9,11.6,.57,1.52,1.28,3.03,2.43,4.2,.61,.62,1.53,1.11,2.4,.74,.82-.28,1.06-1.22,1.07-1.99,.02-1.67-.3-3.32-.45-4.98-.36-3.33-.29-6.78,.79-9.98,.81-2.42,2.19-4.6,3.75-6.6,.9-1.2,1.91-2.32,2.72-3.58,.35-.56,.69-1.19,.63-1.88-.07-.69-.66-1.16-1.23-1.47Zm86.64,23.93c0-1.41,0-2.81-.01-4.22-.01-1.4-.06-2.8-.14-4.2-.04-.64-.09-1.28-.15-1.92-.03-.39-.07-.77-.11-1.16-.07-.75-.15-1.49-.26-2.23,0-.06-.01-.12-.02-.18-.05-.38-.11-.77-.17-1.15-.06-.48-.14-.97-.23-1.45-.06-.37-.13-.75-.2-1.12-.38-2.12-.86-4.22-1.45-6.29-.22-.83-.46-1.65-.73-2.47-.13-.41-.26-.82-.4-1.23-.13-.41-.27-.81-.42-1.22-.14-.4-.28-.79-.43-1.18,0-.02,0-.03-.01-.04-.3-.8-.61-1.6-.95-2.39-.15-.35-.3-.7-.45-1.05-.24-.57-.5-1.13-.76-1.69-.24-.51-.49-1.02-.74-1.52-.26-.53-.53-1.06-.8-1.58-.23-.45-.47-.89-.72-1.33-1.53-2.79-3.25-5.46-5.16-8-.23-.33-.47-.65-.72-.96-.29-.38-.59-.76-.88-1.14-.04-.03-.06-.06-.09-.1-1.2-1.48-2.45-2.91-3.76-4.3-.86-.91-1.75-1.8-2.66-2.68-.98-.92-1.97-1.82-2.99-2.69-.52-.44-1.03-.87-1.55-1.28-.52-.42-1.05-.84-1.58-1.24-6.9-5.29-14.72-9.36-23.02-11.9-.39-.12-.78-.24-1.17-.35-.5-.15-1.01-.29-1.51-.42-.82-.22-1.64-.44-2.47-.63-.3-.07-.61-.14-.91-.21-.62-.14-1.24-.27-1.86-.39-2.99-.6-6.03-1.02-9.07-1.25-.25-.02-.5-.03-.74-.05-.43-.03-.85-.05-1.28-.08-3.49-.17-6.99-.11-10.46,.2-.68,.06-1.36,.13-2.04,.2-.41,.05-.82,.1-1.23,.16-.41,.05-.82,.11-1.23,.17-.41,.06-.82,.12-1.23,.2-.4,.07-.81,.14-1.22,.21-.81,.15-1.62,.31-2.43,.49-5.25,1.13-10.37,2.84-15.24,5.13-.55,.25-1.11,.52-1.65,.8-.41,.2-.82,.41-1.23,.63-.52,.27-1.03,.54-1.54,.82-.38,.2-.75,.41-1.12,.63-.35,.2-.69,.4-1.03,.61-.51,.3-1.02,.61-1.52,.92-1.47,.92-2.9,1.89-4.3,2.91-.51,.37-1,.74-1.5,1.12-.98,.76-1.95,1.55-2.9,2.35-.47,.41-.94,.82-1.4,1.23-.93,.83-1.83,1.69-2.72,2.57-.44,.43-.88,.88-1.31,1.33-.43,.45-.85,.9-1.27,1.36-.42,.46-.83,.92-1.23,1.38-.01,.02-.02,.03-.03,.04-.39,.44-.76,.88-1.13,1.32-.04,.06-.08,.11-.13,.17-.35,.43-.7,.86-1.05,1.29-.02,.04-.05,.08-.09,.12-.37,.48-.73,.96-1.09,1.44-.37,.49-.73,.99-1.08,1.49-.01,.01-.01,.02-.03,.03-.71,1.01-1.4,2.04-2.06,3.09-.33,.52-.66,1.05-.98,1.59-.32,.53-.63,1.07-.93,1.61-.31,.54-.61,1.09-.9,1.64-.28,.52-.55,1.06-.82,1.59-.29,.58-.57,1.16-.84,1.74-.79,1.69-1.51,3.42-2.16,5.16-.65,1.75-1.23,3.53-1.74,5.33-.24,.82-.45,1.64-.66,2.46-.2,.83-.39,1.66-.57,2.49-.16,.77-.31,1.55-.45,2.33,0,.11-.03,.21-.05,.31-.06,.34-.12,.68-.17,1.02-.07,.45-.13,.91-.2,1.36-.06,.42-.11,.84-.16,1.26-.05,.43-.1,.85-.14,1.27-.05,.42-.09,.85-.12,1.27-.04,.42-.07,.85-.1,1.27-.03,.42-.05,.85-.07,1.27-.03,.43-.04,.85-.06,1.27-.01,.36-.02,.71-.02,1.06,0,.13-.01,.25-.01,.38-.09,6.23,.59,12.48,1.98,18.56,0,0,.01,.01,.01,.02,3.38,14.62,10.96,28.26,22.17,38.34,2.23,2.08,4.61,3.99,7.11,5.71,.84,.57,1.69,1.12,2.55,1.66,.43,.26,.87,.52,1.3,.78,.88,.51,1.77,1,2.66,1.47,.45,.24,.91,.47,1.36,.69,.46,.23,.91,.45,1.37,.66,.46,.22,.93,.42,1.39,.63,.47,.2,.93,.4,1.4,.59,.47,.2,.95,.39,1.42,.57s.95,.36,1.43,.53c.48,.17,.96,.34,1.44,.5,.48,.16,.97,.32,1.45,.47,.49,.15,.98,.3,1.47,.44,.49,.14,.98,.27,1.47,.4,.33,.09,.66,.17,.99,.25,.32,.09,.64,.17,.97,.24,.34,.08,.68,.15,1.02,.23,.49,.1,.99,.21,1.49,.3,.48,.1,.96,.19,1.44,.27,.4,.07,.81,.13,1.22,.2,.38,.06,.77,.12,1.15,.17,.93,.13,1.86,.24,2.79,.33,.33,.03,.65,.06,.97,.09,.51,.04,1.02,.08,1.53,.11,.97,.06,1.93,.11,2.9,.13h.15v.02h1.42c12.3,0,24.53-3.23,34.79-9.9,1.79-1.16,2.3-3.56,1.21-5.38-3.26-5.46-6.52-10.92-9.78-16.37-.58-.97-.25-2.22,.74-2.76,3.06-1.68,5.91-3.71,8.49-6.02,.86-.77,2.18-.64,2.88,.28,4.54,5.97,16.93,22.07,24.05,31.3,3.46,4.48,10.38,4.07,13.23-.82,1.67-2.86,2.62-6.18,2.62-9.73v-28.89c0-6.95,0-13.91-.03-20.86Zm-38.83,3.62c-.49,2.36-1.23,4.66-2.21,6.86-.35,.82-.74,1.64-1.18,2.43-.27,.53-.57,1.06-.89,1.57-.29,.5-.6,.99-.94,1.47-.03,.06-.07,.12-.11,.17-.29,.43-.59,.84-.91,1.25-.05,.08-.11,.16-.18,.23-.24,.34-.51,.66-.79,.98-.22,.28-.46,.55-.71,.82-.05,.07-.11,.13-.16,.19-.3,.33-.61,.65-.93,.96-.07,.08-.16,.17-.24,.25-.02,.02-.05,.05-.07,.06-.61,.63-1.25,1.23-1.91,1.77-.84,.75-1.72,1.43-2.63,2.05-.01,0-.03,.03-.05,.03-.4,.29-.8,.55-1.22,.8-.12,.09-.24,.16-.36,.22-.39,.25-.78,.48-1.17,.68-.05,.04-.1,.07-.15,.09-.45,.26-.91,.49-1.37,.71-.02,.02-.04,.03-.06,.03-.44,.23-.89,.43-1.35,.62-.15,.07-.3,.14-.46,.2-.33,.15-.66,.28-.99,.4-.35,.14-.71,.27-1.07,.39-.13,.05-.27,.1-.41,.14-.34,.12-.68,.23-1.02,.32-.24,.08-.47,.15-.71,.22-.31,.08-.61,.16-.92,.23-.45,.12-.91,.22-1.36,.31-.37,.09-.74,.16-1.11,.23-.51,.09-1.02,.17-1.52,.24-.44,.06-.87,.12-1.31,.15-2.81,.29-5.65,.27-8.45-.06-.35-.05-.71-.09-1.06-.15-.37-.06-.73-.12-1.1-.18-.36-.06-.71-.13-1.07-.21-.42-.09-.84-.19-1.25-.29-.48-.11-.95-.24-1.42-.38-.49-.14-.97-.29-1.44-.45-.4-.13-.78-.27-1.17-.42-.13-.05-.27-.1-.41-.15-.42-.17-.83-.34-1.24-.52-.46-.2-.92-.41-1.37-.63-2.26-1.11-4.4-2.47-6.37-4.08-.26-.21-.53-.41-.78-.63-.52-.42-1.02-.86-1.5-1.32-.24-.23-.48-.46-.71-.69s-.47-.48-.7-.72c-.22-.24-.45-.48-.67-.73s-.43-.5-.64-.75c-1.06-1.28-2.02-2.62-2.88-4.03-.17-.29-.34-.57-.51-.86-.16-.28-.32-.57-.48-.86-.46-.88-.89-1.77-1.29-2.68-.13-.31-.26-.61-.38-.92-.12-.31-.24-.62-.36-.93-.22-.62-.43-1.24-.63-1.88-.1-.31-.19-.63-.28-.95-.08-.29-.16-.57-.23-.86-.01-.05-.02-.1-.04-.15-.07-.3-.15-.61-.21-.92-.06-.26-.12-.53-.17-.8-.2-1.03-.36-2.07-.48-3.12-.04-.32-.07-.65-.1-.98-.08-1-.12-2-.12-3,0-.78,.03-1.55,.08-2.33,.01-.12,.02-.24,.02-.36,.05-.64,.12-1.29,.21-1.93,.09-.67,.19-1.33,.32-1.99,.19-.97,.42-1.93,.69-2.88,.12-.39,.23-.78,.36-1.16,.57-1.88,1.31-3.7,2.21-5.43,.3-.58,.62-1.15,.96-1.71,.36-.6,.73-1.19,1.12-1.77,.26-.37,.52-.73,.78-1.09,.65-.87,1.34-1.71,2.07-2.52,1-1.11,2.07-2.15,3.19-3.12,.57-.49,1.15-.96,1.74-1.41l.9-.66c.92-.65,1.86-1.25,2.83-1.81,.94-.54,1.92-1.04,2.91-1.5,.02,0,.05-.01,.07-.03,2.04-.92,4.16-1.64,6.35-2.14,1.77-.43,3.58-.73,5.41-.9,.38-.03,.76-.06,1.14-.08,2.57-.15,5.15-.04,7.7,.34,.6,.08,1.2,.19,1.8,.3,6.58,1.29,12.8,4.33,17.61,9.04,.45,.43,.88,.88,1.3,1.34,.38,.4,.74,.81,1.09,1.23,0,0,.01,0,.01,.01,1.43,1.67,2.66,3.49,3.69,5.4h.01c.52,.97,.99,1.94,1.41,2.94h0c2.97,7.01,3.62,15,1.99,22.45Zm-38.76-33.79c-.75-.48-1.7-.53-2.56-.34-1.27,.29-2.43,1.12-3.05,2.29-.41,.79-.53,1.79-.08,2.59,.45,.84,1.43,1.27,2.35,1.29,1.12,.01,2.23-.42,3.07-1.17,.82-.69,1.41-1.72,1.36-2.81-.02-.75-.45-1.46-1.09-1.85Zm-9.05,6.24c-.62-.34-1.36-.38-2.04-.27-2.02,.41-3.68,1.76-5.11,3.17-2.94,3.03-4.99,6.91-5.86,11.04-.75,3.85-.41,7.9,.9,11.6,.57,1.52,1.28,3.03,2.43,4.2,.61,.62,1.53,1.11,2.4,.74,.82-.28,1.06-1.22,1.07-1.99,.02-1.67-.3-3.32-.45-4.98-.36-3.33-.29-6.78,.79-9.98,.81-2.42,2.19-4.6,3.75-6.6,.9-1.2,1.91-2.32,2.72-3.58,.35-.56,.69-1.19,.63-1.88-.07-.69-.66-1.16-1.23-1.47Z"/></svg>