<?xml version="1.0" encoding="UTF-8"?><svg id="a" xmlns="http://www.w3.org/2000/svg" viewBox="0 0 754.18 344.97"><defs><style>.b{fill:#036be8;}.c{fill:#1a1a1a;}</style></defs><g/><g><g><path class="b" d="M52.99,41.33c4.67,0,8.21,1.14,10.62,3.43,2.41,2.28,3.62,5.61,3.62,9.97,0,2.28-.55,4.35-1.64,6.21-1.09,1.85-2.69,3.31-4.8,4.38-2.11,1.07-4.73,1.62-7.88,1.68l.15-2.82c1.68,0,3.49,.23,5.44,.69,1.95,.46,3.79,1.24,5.52,2.36,1.72,1.12,3.15,2.63,4.26,4.53,1.12,1.9,1.67,4.28,1.67,7.12,0,3.1-.51,5.67-1.52,7.73-1.02,2.06-2.36,3.67-4.04,4.83-1.67,1.17-3.52,1.99-5.52,2.47-2.01,.48-3.97,.72-5.9,.72h-19.49c-1.07,0-1.98-.37-2.74-1.1-.76-.74-1.14-1.66-1.14-2.78V45.21c0-1.12,.38-2.04,1.14-2.78,.76-.74,1.68-1.1,2.74-1.1h19.49Zm-1.07,7.46h-15l.91-1.22v16.37l-.84-.84h15.08c1.83-.05,3.44-.67,4.83-1.87,1.4-1.19,2.09-2.96,2.09-5.29s-.64-4.17-1.9-5.37c-1.27-1.19-3-1.79-5.18-1.79Zm.53,21.78h-15.15l.53-.53v17.97l-.61-.68h15.68c2.64,0,4.77-.7,6.4-2.09,1.62-1.4,2.44-3.51,2.44-6.36,0-2.38-.48-4.16-1.45-5.33-.96-1.17-2.16-1.95-3.58-2.36-1.42-.41-2.84-.61-4.26-.61Z"/><path class="b" d="M108.42,54.58c1.07,0,1.97,.37,2.7,1.1,.73,.74,1.1,1.66,1.1,2.78v20.02c0,5.28-1.47,9.4-4.42,12.37-2.94,2.97-7.11,4.45-12.49,4.45s-9.45-1.48-12.37-4.45c-2.92-2.97-4.38-7.09-4.38-12.37v-20.02c0-1.12,.35-2.04,1.07-2.78,.71-.74,1.62-1.1,2.74-1.1s1.97,.37,2.7,1.1c.74,.74,1.1,1.66,1.1,2.78v20.02c0,3.3,.77,5.76,2.32,7.39,1.55,1.62,3.82,2.44,6.81,2.44s5.35-.81,6.93-2.44c1.57-1.62,2.36-4.08,2.36-7.39v-20.02c0-1.12,.35-2.04,1.07-2.78,.71-.74,1.62-1.1,2.74-1.1Z"/><path class="b" d="M120.45,88.38c-.46-.71-.66-1.53-.61-2.47,.05-.94,.58-1.74,1.6-2.4,.71-.46,1.46-.65,2.25-.57,.79,.08,1.54,.47,2.25,1.18,1.42,1.57,3.01,2.82,4.76,3.73,1.75,.91,3.87,1.37,6.36,1.37,1.01-.05,2.06-.22,3.12-.5,1.07-.28,1.98-.79,2.74-1.52,.76-.74,1.14-1.81,1.14-3.24,0-1.27-.41-2.28-1.22-3.05-.81-.76-1.88-1.38-3.2-1.87-1.32-.48-2.74-.93-4.26-1.33-1.62-.46-3.26-.96-4.91-1.52s-3.13-1.28-4.45-2.17c-1.32-.89-2.4-2.04-3.24-3.46-.84-1.42-1.26-3.17-1.26-5.25,0-2.38,.67-4.44,2.02-6.17,1.34-1.72,3.1-3.07,5.25-4.04,2.16-.96,4.5-1.45,7.04-1.45,1.47,0,3.02,.19,4.64,.57,1.62,.38,3.2,.98,4.72,1.79,1.52,.81,2.84,1.88,3.96,3.2,.51,.66,.8,1.45,.88,2.36s-.34,1.73-1.26,2.44c-.61,.51-1.35,.74-2.21,.69-.86-.05-1.57-.33-2.13-.84-.96-1.22-2.21-2.17-3.73-2.86-1.52-.68-3.25-1.03-5.18-1.03-.96,0-1.97,.14-3.01,.42-1.04,.28-1.92,.77-2.63,1.48-.71,.71-1.07,1.75-1.07,3.12,0,1.27,.42,2.28,1.26,3.04,.84,.76,1.94,1.4,3.31,1.9,1.37,.51,2.87,.96,4.49,1.37,1.57,.41,3.13,.89,4.68,1.45,1.55,.56,2.94,1.28,4.19,2.17,1.24,.89,2.26,2.03,3.05,3.43,.79,1.4,1.18,3.16,1.18,5.29,0,2.49-.72,4.61-2.17,6.36-1.45,1.75-3.27,3.08-5.48,4-2.21,.91-4.53,1.37-6.97,1.37-2.89,0-5.78-.52-8.64-1.56-2.87-1.04-5.29-2.86-7.27-5.44Z"/><path class="b" d="M191.71,54.42c1.07,0,1.97,.37,2.7,1.1,.74,.74,1.1,1.66,1.1,2.78v47.66c0,1.12-.37,2.04-1.1,2.78-.74,.74-1.64,1.1-2.7,1.1s-2.03-.37-2.74-1.1c-.71-.74-1.07-1.66-1.07-2.78v-20.71l1.52,.08c0,.91-.37,1.94-1.1,3.08-.74,1.14-1.74,2.25-3.01,3.31-1.27,1.07-2.77,1.94-4.49,2.63-1.73,.69-3.58,1.03-5.56,1.03-3.45,0-6.59-.9-9.4-2.7-2.82-1.8-5.04-4.26-6.66-7.39-1.62-3.12-2.44-6.71-2.44-10.77s.81-7.65,2.44-10.77c1.62-3.12,3.82-5.58,6.59-7.39,2.77-1.8,5.85-2.7,9.25-2.7,2.13,0,4.12,.36,5.98,1.07,1.85,.71,3.46,1.62,4.83,2.74,1.37,1.12,2.45,2.3,3.24,3.54,.79,1.25,1.18,2.42,1.18,3.54l-2.36,.23v-6.47c0-1.07,.35-1.98,1.07-2.74,.71-.76,1.62-1.14,2.74-1.14Zm-15.53,33.96c2.39,0,4.48-.61,6.28-1.83,1.8-1.22,3.21-2.87,4.23-4.95,1.01-2.08,1.52-4.44,1.52-7.08s-.51-5-1.52-7.08c-1.02-2.08-2.42-3.73-4.23-4.95-1.8-1.22-3.9-1.83-6.28-1.83s-4.42,.61-6.24,1.83c-1.83,1.22-3.25,2.87-4.26,4.95-1.02,2.08-1.52,4.44-1.52,7.08s.51,5,1.52,7.08c1.01,2.08,2.44,3.73,4.26,4.95,1.83,1.22,3.91,1.83,6.24,1.83Z"/><path class="b" d="M235.95,54.58c1.07,0,1.97,.37,2.7,1.1,.74,.74,1.1,1.66,1.1,2.78v20.02c0,5.28-1.47,9.4-4.42,12.37-2.95,2.97-7.11,4.45-12.49,4.45s-9.45-1.48-12.37-4.45c-2.92-2.97-4.38-7.09-4.38-12.37v-20.02c0-1.12,.35-2.04,1.07-2.78,.71-.74,1.62-1.1,2.74-1.1s1.97,.37,2.7,1.1c.74,.74,1.1,1.66,1.1,2.78v20.02c0,3.3,.77,5.76,2.32,7.39,1.55,1.62,3.82,2.44,6.81,2.44s5.35-.81,6.93-2.44c1.57-1.62,2.36-4.08,2.36-7.39v-20.02c0-1.12,.35-2.04,1.07-2.78,.71-.74,1.62-1.1,2.74-1.1Z"/><path class="b" d="M268.61,95.39c-4.16,0-7.8-.88-10.93-2.63-3.12-1.75-5.53-4.16-7.23-7.23-1.7-3.07-2.55-6.59-2.55-10.54,0-4.47,.9-8.29,2.7-11.46,1.8-3.17,4.16-5.61,7.08-7.31,2.92-1.7,6-2.55,9.25-2.55,2.44,0,4.78,.49,7.04,1.48,2.26,.99,4.25,2.36,5.98,4.11s3.1,3.81,4.11,6.17c1.01,2.36,1.55,4.94,1.6,7.73-.05,1.02-.46,1.85-1.22,2.51-.76,.66-1.65,.99-2.66,.99h-29.54l-1.83-6.47h28.63l-1.45,1.37v-1.9c-.15-1.78-.76-3.34-1.83-4.68-1.07-1.34-2.37-2.39-3.92-3.12-1.55-.74-3.19-1.1-4.91-1.1-1.52,0-3,.24-4.42,.72-1.42,.48-2.67,1.26-3.73,2.32s-1.93,2.47-2.59,4.23c-.66,1.75-.99,3.92-.99,6.51,0,2.79,.58,5.23,1.75,7.31,1.17,2.08,2.74,3.69,4.72,4.83,1.98,1.14,4.19,1.71,6.62,1.71,1.83,0,3.35-.19,4.57-.57,1.22-.38,2.23-.85,3.04-1.41,.81-.56,1.52-1.09,2.13-1.6,.81-.46,1.57-.69,2.28-.69,.91,0,1.67,.32,2.28,.95s.91,1.38,.91,2.25c0,1.12-.56,2.13-1.68,3.04-1.37,1.32-3.26,2.49-5.67,3.5-2.41,1.01-4.94,1.52-7.58,1.52Z"/><path class="b" d="M313.99,53.89c3.76,0,6.65,.93,8.68,2.78,2.03,1.85,3.38,4.35,4.04,7.5l-1.22-.38,.53-1.22c.66-1.32,1.66-2.65,3.01-4s2.96-2.46,4.83-3.35c1.88-.89,3.88-1.33,6.01-1.33,3.5,0,6.22,.75,8.15,2.25,1.93,1.5,3.27,3.5,4.04,6.02,.76,2.51,1.14,5.32,1.14,8.41v20.18c0,1.12-.36,2.04-1.07,2.78-.71,.74-1.63,1.1-2.74,1.1s-1.97-.37-2.7-1.1c-.74-.74-1.1-1.66-1.1-2.78v-20.1c0-1.78-.24-3.4-.72-4.87-.48-1.47-1.32-2.65-2.51-3.54-1.19-.89-2.83-1.33-4.91-1.33s-3.74,.45-5.29,1.33c-1.55,.89-2.75,2.07-3.62,3.54-.86,1.47-1.29,3.1-1.29,4.87v20.1c0,1.12-.36,2.04-1.07,2.78-.71,.74-1.62,1.1-2.74,1.1s-2.03-.37-2.74-1.1c-.71-.74-1.07-1.66-1.07-2.78v-20.18c0-1.78-.24-3.4-.72-4.87-.48-1.47-1.31-2.64-2.47-3.5-1.17-.86-2.79-1.29-4.87-1.29s-3.73,.43-5.25,1.29c-1.52,.86-2.7,2.03-3.54,3.5-.84,1.47-1.26,3.1-1.26,4.87v20.18c0,1.12-.37,2.04-1.1,2.78s-1.64,1.1-2.7,1.1-2.03-.37-2.74-1.1c-.71-.74-1.07-1.66-1.07-2.78V58.46c0-1.12,.35-2.04,1.07-2.78,.71-.74,1.62-1.1,2.74-1.1s1.97,.37,2.7,1.1c.74,.74,1.1,1.66,1.1,2.78v4.49l-1.45,.84c.35-1.12,.94-2.26,1.75-3.43,.81-1.17,1.84-2.23,3.08-3.2,1.24-.96,2.63-1.75,4.15-2.36s3.17-.91,4.95-.91Z"/><path class="b" d="M401.93,74.6c0,4.06-.9,7.65-2.7,10.77-1.8,3.12-4.23,5.57-7.27,7.35-3.05,1.78-6.47,2.67-10.28,2.67s-7.17-.89-10.24-2.67c-3.07-1.78-5.51-4.23-7.31-7.35-1.8-3.12-2.7-6.71-2.7-10.77s.9-7.73,2.7-10.85,4.24-5.58,7.31-7.39c3.07-1.8,6.48-2.7,10.24-2.7s7.23,.9,10.28,2.7c3.05,1.8,5.47,4.26,7.27,7.39,1.8,3.12,2.7,6.74,2.7,10.85Zm-7.61,0c0-2.79-.56-5.21-1.67-7.27-1.12-2.06-2.63-3.68-4.53-4.87-1.9-1.19-4.05-1.79-6.43-1.79s-4.45,.6-6.36,1.79c-1.9,1.19-3.43,2.82-4.57,4.87-1.14,2.06-1.71,4.48-1.71,7.27s.57,5.08,1.71,7.16c1.14,2.08,2.66,3.71,4.57,4.87,1.9,1.17,4.02,1.75,6.36,1.75s4.53-.58,6.43-1.75c1.9-1.17,3.41-2.79,4.53-4.87,1.12-2.08,1.67-4.47,1.67-7.16Z"/><path class="b" d="M407.79,88.38c-.46-.71-.66-1.53-.61-2.47,.05-.94,.58-1.74,1.6-2.4,.71-.46,1.46-.65,2.25-.57,.79,.08,1.54,.47,2.25,1.18,1.42,1.57,3.01,2.82,4.76,3.73,1.75,.91,3.87,1.37,6.36,1.37,1.01-.05,2.06-.22,3.12-.5,1.07-.28,1.98-.79,2.74-1.52,.76-.74,1.14-1.81,1.14-3.24,0-1.27-.41-2.28-1.22-3.05-.81-.76-1.88-1.38-3.2-1.87-1.32-.48-2.74-.93-4.26-1.33-1.62-.46-3.26-.96-4.91-1.52s-3.13-1.28-4.45-2.17c-1.32-.89-2.4-2.04-3.24-3.46-.84-1.42-1.26-3.17-1.26-5.25,0-2.38,.67-4.44,2.02-6.17,1.34-1.72,3.1-3.07,5.25-4.04,2.16-.96,4.5-1.45,7.04-1.45,1.47,0,3.02,.19,4.64,.57,1.62,.38,3.2,.98,4.72,1.79,1.52,.81,2.84,1.88,3.96,3.2,.51,.66,.8,1.45,.88,2.36s-.34,1.73-1.26,2.44c-.61,.51-1.35,.74-2.21,.69-.86-.05-1.57-.33-2.13-.84-.96-1.22-2.21-2.17-3.73-2.86-1.52-.68-3.25-1.03-5.18-1.03-.96,0-1.97,.14-3.01,.42-1.04,.28-1.92,.77-2.63,1.48-.71,.71-1.07,1.75-1.07,3.12,0,1.27,.42,2.28,1.26,3.04,.84,.76,1.94,1.4,3.31,1.9,1.37,.51,2.87,.96,4.49,1.37,1.57,.41,3.13,.89,4.68,1.45,1.55,.56,2.94,1.28,4.19,2.17,1.24,.89,2.26,2.03,3.05,3.43,.79,1.4,1.18,3.16,1.18,5.29,0,2.49-.72,4.61-2.17,6.36-1.45,1.75-3.27,3.08-5.48,4-2.21,.91-4.53,1.37-6.97,1.37-2.89,0-5.78-.52-8.64-1.56-2.87-1.04-5.29-2.86-7.27-5.44Z"/></g><path class="c" d="M585.61,132.12c8.55-3.05,18.69,2.97,20.29,11.86,2.11,8.77-5.05,18-13.9,18.73-8.36,1.05-16.63-5.75-17.33-14.1-.82-7.17,4.06-14.39,10.94-16.49Z"/><path class="c" d="M325.62,147.41c-.09-8.36,7.85-15.87,16.25-14.81,7.16,.48,13.02,7,13.11,14.11,.18,10.31,.01,20.64,.08,30.95,11.82-5.78,25.61-7.7,38.45-4.57,17.26,3.94,32.22,16.79,38.48,33.38,5.33,13.73,4.54,29.69-2.15,42.81-7.11,14.29-20.78,25.09-36.31,28.74-14.52,3.56-30.41,.82-42.92-7.38-15.83-10.01-25.8-28.55-25.04-47.32,.03-25.31-.06-50.62,.05-75.91Zm46.43,53.1c-6.52,1.85-12.21,6.41-15.39,12.39-4.34,7.98-4.14,18.21,.52,26,4.15,7.14,11.87,12.16,20.16,12.67,8.95,.69,18.3-3.25,23.54-10.67,7.51-10.22,6.3-26-3.25-34.53-6.76-6.16-16.81-8.31-25.57-5.86Z"/><path class="c" d="M24.35,152.29c-3.72-8.92,4.72-19.16,14.02-18.65,29.51-.05,59.04-.03,88.56,0,7.63-.3,14.76,6.11,15,13.78,.38,7.4-6.74,13.32-13.77,13.55-10.19,.21-20.4,.02-30.61,.08-.03,34.17,.02,68.33-.02,102.49,.15,5.45-3.03,10.77-7.93,13.17-5.71,3.02-13.36,1.91-17.79-2.85-2.65-2.74-3.99-6.55-3.94-10.32-.13-34.18,.16-68.37-.15-102.55-9.8,.14-19.61,.08-29.42,.05-5.79,.06-11.59-3.38-13.94-8.73Z"/><path class="c" d="M226.69,179.21c10.69-6.42,23.62-8.88,35.94-7.02,15.69,2.13,30.32,11.38,38.64,24.91,5.54,8.78,8.24,19.19,8.13,29.55-.09,13.21,.21,26.42-.15,39.61-.37,7.69-8.34,14.02-15.91,11.76-5.36-1.06-8.21-6.34-9.1-11.3-17.4,17.68-48.55,16.64-66.29,0-14.96-13.47-21.15-35.58-16.01-54.95,3.55-13.55,12.72-25.45,24.76-32.55Zm22.23,21.07c-8.61,1.99-15.99,8.7-18.52,17.21-3.11,9.72-.01,21.18,7.91,27.72,9.72,8.48,25.79,8.23,35.11-.76,10.1-9.31,10.72-26.78,1.29-36.78-6.36-7.01-16.7-9.62-25.79-7.39Z"/><path class="c" d="M664.93,172.45c14.86-2.6,30.78,.66,43.11,9.45,12.1,8.45,20.45,22.08,22.25,36.76,2,14.91-2.75,30.54-12.68,41.82-9.82,11.39-24.47,18.29-39.46,18.98-15.29,.92-30.93-4.54-42.04-15.15-10.88-10.14-17.23-24.96-16.85-39.86,.17-13.3,5.7-26.39,14.99-35.89,8.16-8.47,19.1-14.14,30.68-16.1Zm.99,28.54c-11.55,3.6-18.81,16.23-16.93,28.06,1.08,10.52,9.37,19.75,19.73,21.91,8.86,2.02,18.92-.37,25.23-7.11,9.9-10.29,9.37-28.84-1.61-38.16-7.11-6.18-17.61-7.67-26.42-4.69Z"/><path class="c" d="M168.89,173.49c7.23-.72,15.34-2.05,21.87,2.02,8.33,5.46,7.31,19.5-1.13,24.37-4.39,2.75-9.79,1.75-14.63,2.83-7.46,1.39-14.38,6.11-17.77,13-2.9,5.47-3.34,11.8-3.31,17.9-.02,10.19,.07,20.4-.03,30.6,.05,7.16-5.97,13.67-13.11,14.14-8.33,.95-16.61-6.29-16.31-14.77-.02-12.27-.07-24.56,.03-36.84,.16-12.93,3.44-26.37,11.91-36.43,8.01-9.71,20.19-15.14,32.48-16.8Z"/><path class="c" d="M586.66,173.37c8.59-2.98,18.61,3.87,18.84,12.99,.24,28.78,.02,57.56,.11,86.35,.18,10.08-1.14,20.91-7.55,29.09-6.96,8.76-18.37,12.45-29.17,13.23-4.68,.24-9.75-.61-13.3-3.88-5.82-5.4-5.08-16.06,1.37-20.66,4.56-3.55,11.37-2.09,15.5-6.38,3.03-2.92,3.63-7.37,3.65-11.37,.05-28.37-.02-56.73,.03-85.1-.14-6.4,4.38-12.46,10.5-14.26Z"/><path class="b" d="M492.96,210.98c-.46-.25-1-.28-1.5-.2-1.49,.3-2.71,1.3-3.77,2.34-2.17,2.23-3.68,5.09-4.32,8.14-.55,2.84-.3,5.82,.66,8.55,.42,1.12,.94,2.23,1.79,3.1,.45,.46,1.13,.82,1.77,.55,.6-.21,.78-.9,.79-1.47,.01-1.23-.22-2.45-.33-3.67-.27-2.45-.21-5,.58-7.35,.6-1.78,1.61-3.39,2.76-4.86,.66-.88,1.41-1.71,2-2.64,.26-.41,.51-.88,.46-1.39-.05-.51-.49-.85-.91-1.08Zm6.67-4.6c-.55-.35-1.25-.39-1.89-.25-.94,.21-1.79,.83-2.25,1.69-.3,.58-.39,1.32-.06,1.91,.33,.62,1.05,.94,1.73,.95,.83,0,1.64-.31,2.26-.86,.6-.51,1.04-1.27,1-2.07-.01-.55-.33-1.08-.8-1.36Zm0,0c-.55-.35-1.25-.39-1.89-.25-.94,.21-1.79,.83-2.25,1.69-.3,.58-.39,1.32-.06,1.91,.33,.62,1.05,.94,1.73,.95,.83,0,1.64-.31,2.26-.86,.6-.51,1.04-1.27,1-2.07-.01-.55-.33-1.08-.8-1.36Zm-6.67,4.6c-.46-.25-1-.28-1.5-.2-1.49,.3-2.71,1.3-3.77,2.34-2.17,2.23-3.68,5.09-4.32,8.14-.55,2.84-.3,5.82,.66,8.55,.42,1.12,.94,2.23,1.79,3.1,.45,.46,1.13,.82,1.77,.55,.6-.21,.78-.9,.79-1.47,.01-1.23-.22-2.45-.33-3.67-.27-2.45-.21-5,.58-7.35,.6-1.78,1.61-3.39,2.76-4.86,.66-.88,1.41-1.71,2-2.64,.26-.41,.51-.88,.46-1.39-.05-.51-.49-.85-.91-1.08Zm63.85,17.63c0-1.04,0-2.07,0-3.11,0-1.03-.04-2.06-.1-3.1-.03-.47-.07-.94-.11-1.41-.02-.29-.05-.57-.08-.85-.05-.55-.11-1.1-.19-1.64,0-.04,0-.09-.01-.13-.04-.28-.08-.57-.13-.85-.04-.35-.1-.71-.17-1.07-.04-.27-.1-.55-.15-.83-.28-1.56-.63-3.11-1.07-4.64-.16-.61-.34-1.22-.54-1.82-.1-.3-.19-.6-.29-.91-.1-.3-.2-.6-.31-.9-.1-.29-.21-.58-.32-.87,0-.01,0-.02,0-.03-.22-.59-.45-1.18-.7-1.76-.11-.26-.22-.52-.33-.77-.18-.42-.37-.83-.56-1.25-.18-.38-.36-.75-.55-1.12-.19-.39-.39-.78-.59-1.16-.17-.33-.35-.66-.53-.98-1.13-2.06-2.4-4.02-3.8-5.9-.17-.24-.35-.48-.53-.71-.21-.28-.43-.56-.65-.84-.03-.02-.04-.04-.07-.07-.88-1.09-1.81-2.14-2.77-3.17-.63-.67-1.29-1.33-1.96-1.97-.72-.68-1.45-1.34-2.2-1.98-.38-.32-.76-.64-1.14-.94-.38-.31-.77-.62-1.16-.91-5.08-3.9-10.85-6.9-16.96-8.77-.29-.09-.57-.18-.86-.26-.37-.11-.74-.21-1.11-.31-.6-.16-1.21-.32-1.82-.46-.22-.05-.45-.1-.67-.15-.46-.1-.91-.2-1.37-.29-2.2-.44-4.44-.75-6.68-.92-.18-.01-.37-.02-.55-.04-.32-.02-.63-.04-.94-.06-2.57-.13-5.15-.08-7.71,.15-.5,.04-1,.1-1.5,.15-.3,.04-.6,.07-.91,.12-.3,.04-.6,.08-.91,.13-.3,.04-.6,.09-.91,.15-.29,.05-.6,.1-.9,.15-.6,.11-1.19,.23-1.79,.36-3.87,.83-7.64,2.09-11.23,3.78-.41,.18-.82,.38-1.22,.59-.3,.15-.6,.3-.91,.46-.38,.2-.76,.4-1.13,.6-.28,.15-.55,.3-.83,.46-.26,.15-.51,.29-.76,.45-.38,.22-.75,.45-1.12,.68-1.08,.68-2.14,1.39-3.17,2.14-.38,.27-.74,.55-1.11,.83-.72,.56-1.44,1.14-2.14,1.73-.35,.3-.69,.6-1.03,.91-.69,.61-1.35,1.25-2,1.89-.32,.32-.65,.65-.97,.98-.32,.33-.63,.66-.94,1-.31,.34-.61,.68-.91,1.02,0,.01-.01,.02-.02,.03-.29,.32-.56,.65-.83,.97-.03,.04-.06,.08-.1,.13-.26,.32-.52,.63-.77,.95-.01,.03-.04,.06-.07,.09-.27,.35-.54,.71-.8,1.06-.27,.36-.54,.73-.8,1.1,0,0,0,.01-.02,.02-.52,.74-1.03,1.5-1.52,2.28-.24,.38-.49,.77-.72,1.17-.24,.39-.46,.79-.69,1.19-.23,.4-.45,.8-.66,1.21-.21,.38-.41,.78-.6,1.17-.21,.43-.42,.85-.62,1.28-.58,1.25-1.11,2.52-1.59,3.8-.48,1.29-.91,2.6-1.28,3.93-.18,.6-.33,1.21-.49,1.81-.15,.61-.29,1.22-.42,1.83-.12,.57-.23,1.14-.33,1.72,0,.08-.02,.15-.04,.23-.04,.25-.09,.5-.13,.75-.05,.33-.1,.67-.15,1-.04,.31-.08,.62-.12,.93-.04,.32-.07,.63-.1,.94-.04,.31-.07,.63-.09,.94-.03,.31-.05,.63-.07,.94-.02,.31-.04,.63-.05,.94-.02,.32-.03,.63-.04,.94,0,.27-.01,.52-.01,.78,0,.1,0,.18,0,.28-.07,4.59,.43,9.2,1.46,13.68,0,0,0,0,0,.01,2.49,10.77,8.08,20.83,16.34,28.25,1.64,1.53,3.4,2.94,5.24,4.21,.62,.42,1.25,.83,1.88,1.22,.32,.19,.64,.38,.96,.57,.65,.38,1.3,.74,1.96,1.08,.33,.18,.67,.35,1,.51,.34,.17,.67,.33,1.01,.49,.34,.16,.69,.31,1.02,.46,.35,.15,.69,.29,1.03,.43,.35,.15,.7,.29,1.05,.42s.7,.27,1.05,.39c.35,.13,.71,.25,1.06,.37,.35,.12,.71,.24,1.07,.35,.36,.11,.72,.22,1.08,.32,.36,.1,.72,.2,1.08,.29,.24,.07,.49,.13,.73,.18,.24,.07,.47,.13,.71,.18,.25,.06,.5,.11,.75,.17,.36,.07,.73,.15,1.1,.22,.35,.07,.71,.14,1.06,.2,.29,.05,.6,.1,.9,.15,.28,.04,.57,.09,.85,.13,.69,.1,1.37,.18,2.06,.24,.24,.02,.48,.04,.71,.07,.38,.03,.75,.06,1.13,.08,.71,.04,1.42,.08,2.14,.1h1.16c9.06,.01,18.08-2.36,25.64-7.28,1.32-.86,1.69-2.62,.89-3.97-2.4-4.02-4.81-8.04-7.21-12.06-.43-.71-.18-1.63,.55-2.03,2.26-1.24,4.35-2.73,6.26-4.44,.63-.57,1.61-.47,2.12,.2,3.34,4.4,12.48,16.26,17.72,23.06,2.55,3.3,7.65,3,9.75-.6,1.23-2.11,1.93-4.56,1.93-7.17v-21.29c0-5.12,0-10.25-.02-15.37Zm-28.61,2.67c-.36,1.74-.91,3.43-1.63,5.06-.26,.6-.55,1.21-.87,1.79-.2,.39-.42,.78-.66,1.16-.21,.37-.44,.73-.69,1.08-.02,.04-.05,.09-.08,.13-.21,.32-.43,.62-.67,.92-.04,.06-.08,.12-.13,.17-.18,.25-.38,.49-.58,.72-.16,.21-.34,.41-.52,.6-.04,.05-.08,.1-.12,.14-.22,.24-.45,.48-.69,.71-.05,.06-.12,.13-.18,.18-.01,.01-.04,.04-.05,.04-.45,.46-.92,.91-1.41,1.3-.62,.55-1.27,1.05-1.94,1.51,0,0-.02,.02-.04,.02-.29,.21-.59,.41-.9,.59-.09,.07-.18,.12-.27,.16-.29,.18-.57,.35-.86,.5-.04,.03-.07,.05-.11,.07-.33,.19-.67,.36-1.01,.52-.01,.01-.03,.02-.04,.02-.32,.17-.66,.32-.99,.46-.11,.05-.22,.1-.34,.15-.24,.11-.49,.21-.73,.29-.26,.1-.52,.2-.79,.29-.1,.04-.2,.07-.3,.1-.25,.09-.5,.17-.75,.24-.18,.06-.35,.11-.52,.16-.23,.06-.45,.12-.68,.17-.33,.09-.67,.16-1,.23-.27,.07-.55,.12-.82,.17-.38,.07-.75,.13-1.12,.18-.32,.04-.64,.09-.97,.11-2.07,.21-4.16,.2-6.23-.04-.26-.04-.52-.07-.78-.11-.27-.04-.54-.09-.81-.13-.27-.04-.52-.1-.79-.15-.31-.07-.62-.14-.92-.21-.35-.08-.7-.18-1.05-.28-.36-.1-.71-.21-1.06-.33-.29-.1-.57-.2-.86-.31-.1-.04-.2-.07-.3-.11-.31-.13-.61-.25-.91-.38-.34-.15-.68-.3-1.01-.46-1.67-.82-3.24-1.82-4.69-3.01-.19-.15-.39-.3-.57-.46-.38-.31-.75-.63-1.11-.97-.18-.17-.35-.34-.52-.51s-.35-.35-.52-.53c-.16-.18-.33-.35-.49-.54s-.32-.37-.47-.55c-.78-.94-1.49-1.93-2.12-2.97-.13-.21-.25-.42-.38-.63-.12-.21-.24-.42-.35-.63-.34-.65-.66-1.3-.95-1.97-.1-.23-.19-.45-.28-.68-.09-.23-.18-.46-.27-.69-.16-.46-.32-.91-.46-1.39-.07-.23-.14-.46-.21-.7-.06-.21-.12-.42-.17-.63,0-.04-.01-.07-.03-.11-.05-.22-.11-.45-.15-.68-.04-.19-.09-.39-.13-.59-.15-.76-.27-1.53-.35-2.3-.03-.24-.05-.48-.07-.72-.06-.74-.09-1.47-.09-2.21,0-.57,.02-1.14,.06-1.72,0-.09,.01-.18,.01-.27,.04-.47,.09-.95,.15-1.42,.07-.49,.14-.98,.24-1.47,.14-.71,.31-1.42,.51-2.12,.09-.29,.17-.57,.27-.85,.42-1.39,.97-2.73,1.63-4,.22-.43,.46-.85,.7-1.26,.27-.44,.54-.88,.83-1.3,.19-.27,.38-.54,.57-.8,.48-.64,.99-1.26,1.53-1.86,.74-.82,1.53-1.58,2.35-2.3,.42-.36,.85-.71,1.28-1.04l.66-.49c.68-.48,1.37-.92,2.09-1.33,.69-.4,1.41-.77,2.14-1.11,.01,0,.04,0,.05-.02,1.5-.68,3.07-1.21,4.68-1.58,1.3-.32,2.64-.54,3.99-.66,.28-.02,.56-.04,.84-.06,1.89-.11,3.8-.03,5.67,.25,.44,.06,.88,.14,1.33,.22,4.85,.95,9.43,3.19,12.98,6.66,.33,.32,.65,.65,.96,.99,.28,.29,.55,.6,.8,.91,0,0,0,0,0,0,1.05,1.23,1.96,2.57,2.72,3.98h0c.38,.71,.73,1.43,1.04,2.17h0c2.19,5.17,2.67,11.05,1.47,16.54Zm-28.56-24.9c-.55-.35-1.25-.39-1.89-.25-.94,.21-1.79,.83-2.25,1.69-.3,.58-.39,1.32-.06,1.91,.33,.62,1.05,.94,1.73,.95,.83,0,1.64-.31,2.26-.86,.6-.51,1.04-1.27,1-2.07-.01-.55-.33-1.08-.8-1.36Zm-6.67,4.6c-.46-.25-1-.28-1.5-.2-1.49,.3-2.71,1.3-3.77,2.34-2.17,2.23-3.68,5.09-4.32,8.14-.55,2.84-.3,5.82,.66,8.55,.42,1.12,.94,2.23,1.79,3.1,.45,.46,1.13,.82,1.77,.55,.6-.21,.78-.9,.79-1.47,.01-1.23-.22-2.45-.33-3.67-.27-2.45-.21-5,.58-7.35,.6-1.78,1.61-3.39,2.76-4.86,.66-.88,1.41-1.71,2-2.64,.26-.41,.51-.88,.46-1.39-.05-.51-.49-.85-.91-1.08Z"/></g></svg>